<svg width="49" height="48" viewBox="0 0 49 48" fill="none" xmlns="http://www.w3.org/2000/svg">
<path d="M10.4417 34.0167H5.17502C2.54169 34.0167 1.66669 32.2667 1.66669 30.5083V23.4917C1.66669 20.8583 2.54169 19.9833 5.17502 19.9833H10.4417C13.075 19.9833 13.95 20.8583 13.95 23.4917V30.5083C13.95 33.1417 13.0667 34.0167 10.4417 34.0167Z" stroke="#78DFF6" stroke-linecap="round" stroke-linejoin="round"/>
<path d="M16.2667 31.25L13.95 29.625V24.3667L16.2667 22.7417C17.4 21.95 18.3334 22.4333 18.3334 23.825V30.175C18.3334 31.5667 17.4 32.05 16.2667 31.25Z" stroke="#78DFF6" stroke-linecap="round" stroke-linejoin="round"/>
<path d="M9.58335 26.1667C10.2737 26.1667 10.8334 25.607 10.8334 24.9167C10.8334 24.2263 10.2737 23.6667 9.58335 23.6667C8.893 23.6667 8.33335 24.2263 8.33335 24.9167C8.33335 25.607 8.893 26.1667 9.58335 26.1667Z" stroke="#78DFF6" stroke-linecap="round" stroke-linejoin="round"/>
<path d="M29 3.33332V1.66666M22.3334 9.99999H20.6667M29 16.6667V18.3333M35.6667 9.99999H37.3334M35.25 9.99999C35.25 13.4518 32.4518 16.25 29 16.25C25.5482 16.25 22.75 13.4518 22.75 9.99999C22.75 6.54821 25.5482 3.74999 29 3.74999C32.4518 3.74999 35.25 6.54821 35.25 9.99999ZM31.5 9.99999C31.5 11.3807 30.3807 12.5 29 12.5C27.6193 12.5 26.5 11.3807 26.5 9.99999C26.5 8.61928 27.6193 7.49999 29 7.49999C30.3807 7.49999 31.5 8.61928 31.5 9.99999Z" stroke="#78F78B" stroke-linecap="round" stroke-linejoin="round"/>
<g clip-path="url(#clip0_87_37)">
<path d="M24.689 34.5815C26.6655 34.0519 28.9321 34.5081 29.4403 36.4048L30.7349 41.2362C31.3068 43.3706 30.0358 45.5721 27.9014 46.144C25.767 46.7159 23.5655 45.4448 22.9936 43.3105L21.699 38.479C21.1672 36.494 22.876 35.0673 24.689 34.5815ZM23.7221 43.1153C24.1864 44.848 25.9736 45.8796 27.7061 45.4154C29.4387 44.9511 30.4706 43.1642 30.0063 41.4314L29.4008 39.1718C28.8029 39.5429 27.6581 40.1688 26.2104 40.5567C25.2835 40.8051 24.2323 40.9541 23.1223 40.8767L23.7221 43.1153ZM22.9146 40.1017C25.842 40.4055 28.4545 38.8861 29.1956 38.406L28.7117 36.6C28.3357 35.1967 26.4591 34.8881 24.8842 35.31C23.3733 35.7149 22.0276 36.7913 22.4276 38.2838L22.9146 40.1017ZM24.8072 36.2357L25.5149 38.8768C25.5688 39.078 25.7758 39.1974 25.9768 39.1436C26.1779 39.0897 26.2974 38.8827 26.2435 38.6816L25.5358 36.0405C25.4819 35.8394 25.275 35.7199 25.0739 35.7738C24.8729 35.8276 24.7533 36.0346 24.8072 36.2357ZM23.136 39.5401C23.136 39.5401 24.7675 39.5584 25.2593 39.329L24.3564 35.9593C24.3564 35.9593 21.9361 36.6404 23.136 39.5401Z" fill="#78DFF6"/>
</g>
<g clip-path="url(#clip1_87_37)">
<path d="M39.9021 18.5244C37.9256 19.054 36.1908 20.5823 36.699 22.4791L37.9936 27.3105C38.5655 29.4448 40.767 30.7159 42.9014 30.144C45.0357 29.5721 46.3068 27.3706 45.7349 25.2362L44.4403 20.4048C43.9084 18.4198 41.7151 18.0386 39.9021 18.5244ZM45.0064 25.4314C45.4706 27.1641 44.4387 28.9512 42.7062 29.4154C40.9736 29.8796 39.1865 28.848 38.7222 27.1153L38.1167 24.8556C38.8201 24.8781 40.1244 24.8477 41.5722 24.4598C42.4991 24.2114 43.4839 23.8149 44.4065 23.1928L45.0064 25.4314ZM44.1989 22.4178C41.8156 24.1446 38.7934 24.135 37.9116 24.0898L37.4276 22.2838C37.0516 20.8806 38.5225 19.6749 40.0973 19.253C41.6083 18.8481 43.3119 19.1075 43.7118 20.6L44.1989 22.4178ZM40.6269 20.0161L41.3346 22.6572C41.3885 22.8583 41.2689 23.0653 41.0679 23.1192C40.8669 23.173 40.6599 23.0536 40.606 22.8525L39.8983 20.2113C39.8444 20.0102 39.9639 19.8033 40.165 19.7494C40.3659 19.6955 40.573 19.815 40.6269 20.0161ZM43.7264 22.0422C43.7264 22.0422 42.3226 22.8738 41.782 22.921L40.8791 19.5513C40.8791 19.5513 43.3157 18.931 43.7264 22.0422Z" fill="#78F68B"/>
</g>
<rect x="10.9938" y="9.54041" width="43.7262" height="0.860534" rx="0.430267" transform="rotate(45 10.9938 9.54041)" fill="#D9D9D9" fill-opacity="0.5"/>
<defs>
<clipPath id="clip0_87_37">
<rect width="12" height="12" fill="white" transform="matrix(-0.965926 0.258819 0.258819 0.965926 30.5911 33)"/>
</clipPath>
<clipPath id="clip1_87_37">
<rect width="12" height="12" fill="white" transform="translate(34 20.1058) rotate(-15)"/>
</clipPath>
</defs>
</svg>
