<svg width="32" height="32" viewBox="0 0 32 32" fill="none" xmlns="http://www.w3.org/2000/svg">
<path d="M16.7067 27.2267H8.28002C4.06669 27.2267 2.66669 24.4267 2.66669 21.6133V10.3867C2.66669 6.17335 4.06669 4.77335 8.28002 4.77335H16.7067C20.92 4.77335 22.32 6.17335 22.32 10.3867V21.6133C22.32 25.8267 20.9067 27.2267 16.7067 27.2267Z" stroke="white" stroke-width="2" stroke-linecap="round" stroke-linejoin="round"/>
<path d="M26.0267 22.8L22.32 20.2V11.7867L26.0267 9.18668C27.84 7.92001 29.3334 8.69335 29.3334 10.92V21.08C29.3334 23.3067 27.84 24.08 26.0267 22.8Z" stroke="white" stroke-width="2" stroke-linecap="round" stroke-linejoin="round"/>
<path d="M15.3334 14.6667C16.4379 14.6667 17.3334 13.7712 17.3334 12.6667C17.3334 11.5621 16.4379 10.6667 15.3334 10.6667C14.2288 10.6667 13.3334 11.5621 13.3334 12.6667C13.3334 13.7712 14.2288 14.6667 15.3334 14.6667Z" stroke="white" stroke-width="2" stroke-linecap="round" stroke-linejoin="round"/>
</svg>
