<svg width="32" height="32" viewBox="0 0 32 32" fill="none" xmlns="http://www.w3.org/2000/svg">
<path d="M2.66666 11.12V20.88C2.66666 22.88 4.83998 24.1333 6.57331 23.1333L10.8 20.7067L15.0266 18.2667C15.2933 18.1067 15.5067 17.9333 15.68 17.72V14.3067C15.5067 14.0933 15.2933 13.92 15.0266 13.76L10.8 11.32L6.57331 8.89335C4.83998 7.86668 2.66666 9.11999 2.66666 11.12Z" stroke="white" stroke-width="1.5" stroke-linecap="round" stroke-linejoin="round"/>
<path d="M15.68 11.12V20.88C15.68 22.88 17.8533 24.1333 19.5867 23.1333L23.8133 20.7067L28.04 18.2667C29.7733 17.2667 29.7733 14.7733 28.04 13.76L23.8133 11.32L19.5867 8.89335C17.8533 7.86668 15.68 9.11999 15.68 11.12Z" stroke="white" stroke-width="1.5" stroke-linecap="round" stroke-linejoin="round"/>
</svg>
