<svg width="38" height="38" viewBox="0 0 38 38" fill="none" xmlns="http://www.w3.org/2000/svg">
<path d="M25.5 14.6667C27.4283 17.2342 27.4283 20.7658 25.5 23.3333M27.4825 11.9583C30.6133 16.1292 30.6133 21.8708 27.4825 26.0417M8.16666 16.8333V21.1667C8.16666 23.3333 9.24999 24.4167 11.4167 24.4167H12.9658C13.3667 24.4167 13.7675 24.5358 14.1142 24.7417L17.2775 26.7242C20.0075 28.4358 22.25 27.19 22.25 23.9725V14.0275C22.25 10.7992 20.0075 9.56416 17.2775 11.2758L14.1142 13.2583C13.7675 13.4642 13.3667 13.5833 12.9658 13.5833H11.4167C9.24999 13.5833 8.16666 14.6667 8.16666 16.8333Z" stroke="#4A9BFF" stroke-width="2" stroke-linecap="round"/>
<circle cx="19" cy="19" r="18" stroke="#4A9BFF" stroke-width="2"/>
</svg>
